<svg xmlns="http://www.w3.org/2000/svg" viewBox="0 0 792 313.92"><defs><style>.cls-1{fill:none;}.cls-2{fill:#fff;}.cls-3{fill:#fff;}</style></defs><g id="Capa_2" data-name="Capa 2"><g id="Capa_1-2" data-name="Capa 1"><rect class="cls-1" width="792" height="313.92"/><path class="cls-2" d="M533.43,202.63a2.61,2.61,0,0,0-1.55-.46,2.49,2.49,0,0,0-1.37.43,4.17,4.17,0,0,0-1.15,1.11,16.36,16.36,0,0,0-1,1.48l-1.67,3.23-5.69,11L517.13,227l-9.6-18.53-1.68-3.23a9,9,0,0,0-.92-1.48,5,5,0,0,0-1.14-1.11,2.49,2.49,0,0,0-1.41-.43,2.59,2.59,0,0,0-1.51.46,1.85,1.85,0,0,0-.66,1.64V248.4a1.41,1.41,0,0,0,.66,1.27,2.65,2.65,0,0,0,1.51.43,2.68,2.68,0,0,0,1.47-.43,1.4,1.4,0,0,0,.69-1.27V211.35l9.32,17.91,1.5,2.88a2.66,2.66,0,0,0,.85,1.08,1.63,1.63,0,0,0,.85.29,1.53,1.53,0,0,0,.92-.32,3.15,3.15,0,0,0,.86-1.05l1.52-2.88.69-1.31,8.67-16.41V248.4a1.4,1.4,0,0,0,.69,1.27,2.8,2.8,0,0,0,3,0,1.41,1.41,0,0,0,.66-1.27V204.27A1.92,1.92,0,0,0,533.43,202.63Z"/><path class="cls-2" d="M564.87,229.26a15.9,15.9,0,0,0-1-4.07,10.28,10.28,0,0,0-1.11-2.07,10.08,10.08,0,0,0-2.63-2.62,12,12,0,0,0-7-1.81,17.47,17.47,0,0,0-4.1.49,13.36,13.36,0,0,0-3.41,1.25c-.9.51-1.34,1-1.34,1.6a2.93,2.93,0,0,0,.46,1.51,1.38,1.38,0,0,0,1.24.79,2.64,2.64,0,0,0,1.31-.49,10.09,10.09,0,0,1,2.17-1,11.22,11.22,0,0,1,3.54-.46,7.13,7.13,0,0,1,4.56,1.34,7.66,7.66,0,0,1,2.42,3.41,13.42,13.42,0,0,1,.57,2.08,11.29,11.29,0,0,1,.19,2.09v1.58h-3.35a38.3,38.3,0,0,0-8,.74,10.59,10.59,0,0,0-5.38,2.7,7.42,7.42,0,0,0-1.93,5.53c0,2.94.86,5.11,2.62,6.53a9.15,9.15,0,0,0,3.12,1.67,10.47,10.47,0,0,0,3.17.46,11.2,11.2,0,0,0,3.3-.46,9.06,9.06,0,0,0,2.47-1.12,20.35,20.35,0,0,0,4.13-3.47v2.89a1.52,1.52,0,0,0,.6,1.21,1.91,1.91,0,0,0,1.21.48h.16a2.24,2.24,0,0,0,1.54-.49,1.58,1.58,0,0,0,.56-1.21V231.35A17.92,17.92,0,0,0,564.87,229.26Zm-4.14,10.81a5,5,0,0,1-1.29,3.05,11.12,11.12,0,0,1-3.24,2.72,8.29,8.29,0,0,1-4.13,1.11,6.27,6.27,0,0,1-4-1.31,4.91,4.91,0,0,1-1.68-4.13,4.26,4.26,0,0,1,1.68-3.74,9.69,9.69,0,0,1,4.32-1.53,40.15,40.15,0,0,1,5.61-.37h2.76Z"/><path class="cls-2" d="M590.1,219.25a1.57,1.57,0,0,0-1.22-.56h-2.29a9.65,9.65,0,0,0-3,.44,8.89,8.89,0,0,0-.86.32,10.71,10.71,0,0,0-4.92,4.42v-3.21a1.34,1.34,0,0,0-.59-1.15,2.38,2.38,0,0,0-1.43-.43,2.58,2.58,0,0,0-1.48.43,1.33,1.33,0,0,0-.63,1.15V248.4a1.51,1.51,0,0,0,.63,1.17,2.22,2.22,0,0,0,1.48.53,2.28,2.28,0,0,0,1.53-.53,1.51,1.51,0,0,0,.63-1.17V232.2a11.79,11.79,0,0,1,.35-2.94,8.46,8.46,0,0,1,.89-2.21,9,9,0,0,1,3.25-3.28,8,8,0,0,1,1.15-.55,7.88,7.88,0,0,1,3-.6h2.29a1.5,1.5,0,0,0,1.22-.59,2.22,2.22,0,0,0,0-2.78Z"/><path class="cls-2" d="M620.88,247.22l-11.34-16.6,1.56-1.36,8.08-7.1a1.46,1.46,0,0,0,.36-.55,2.06,2.06,0,0,0,.1-.62,1.91,1.91,0,0,0-.32-1.05,2.3,2.3,0,0,0-.83-.72,2,2,0,0,0-1-.27,1.64,1.64,0,0,0-1,.4l-11.14,9.91-.93.82-3.93,3.49V201.65a1.33,1.33,0,0,0-.62-1.15,2.61,2.61,0,0,0-1.54-.43,2.53,2.53,0,0,0-1.48.43,1.3,1.3,0,0,0-.61,1.15V248.4a1.49,1.49,0,0,0,.61,1.17,2.24,2.24,0,0,0,1.48.53,2.3,2.3,0,0,0,1.54-.53,1.53,1.53,0,0,0,.62-1.17v-9.78l3.93-3.45,2.11-1.85,11,16.19a1.68,1.68,0,0,0,.7.59,1.44,1.44,0,0,0,.62.13,1.93,1.93,0,0,0,.7-.13,3,3,0,0,0,.37-.16,2.37,2.37,0,0,0,.89-.83,1.82,1.82,0,0,0,.33-1A1.58,1.58,0,0,0,620.88,247.22Z"/><path class="cls-2" d="M644.06,235.62a13.45,13.45,0,0,0,2.05-.15l.67-.11a3.56,3.56,0,0,0,2.14-1.33,5.85,5.85,0,0,0,.85-3.59,11.37,11.37,0,0,0-.06-1.18,10.59,10.59,0,0,0-1.65-4.89,12.73,12.73,0,0,0-16.82-4.07,12.61,12.61,0,0,0-4.55,4.33,11,11,0,0,0-1.43,3.43,9.69,9.69,0,0,0-.2,1.2,9.31,9.31,0,0,0-.08,1.31v7.24a12.91,12.91,0,0,0,.28,2.76,10.8,10.8,0,0,0,1.53,3.68,12.21,12.21,0,0,0,5,4.31,18.44,18.44,0,0,0,12.55.8,14.78,14.78,0,0,0,1.79-.72,8.26,8.26,0,0,0,1.62-1.06c.79-.69,1.19-1.27,1.19-1.75a1.83,1.83,0,0,0-.23-.83,2.8,2.8,0,0,0-.66-.81,1.45,1.45,0,0,0-.95-.36,1.92,1.92,0,0,0-1,.28,3.9,3.9,0,0,0-.57.37,10.87,10.87,0,0,1-2.27,1.29,10.16,10.16,0,0,1-4.06.65,11.12,11.12,0,0,1-7.15-2.26,7.5,7.5,0,0,1-2.82-6.15v-2.39Zm-13.7-9.54a8.29,8.29,0,0,1,3-2.84,8.47,8.47,0,0,1,8.4.09,8.22,8.22,0,0,1,2.88,3,8.33,8.33,0,0,1,1,2.89,7.22,7.22,0,0,1,.07,1.05,2,2,0,0,1-.66,1.79,5.45,5.45,0,0,1-2.62.42H629.24v-2.46a5.21,5.21,0,0,1,0-.8A7.29,7.29,0,0,1,630.36,226.08Z"/><path class="cls-2" d="M669,246.23h-2.08c-2.14,0-3.66-.45-4.55-1.26S661,242.6,661,240.47V222.62h8.52a1.26,1.26,0,0,0,1.05-.52,2,2,0,0,0,.39-1.24,2,2,0,0,0-.39-1.25,1.27,1.27,0,0,0-1.05-.53H661V205.91a1.31,1.31,0,0,0-.66-1.15,2.75,2.75,0,0,0-1.51-.43,2.66,2.66,0,0,0-1.4.43,1.3,1.3,0,0,0-.69,1.15v34.56c0,3.36.89,5.8,2.68,7.34s4.25,2.25,7.5,2.28H669a1.74,1.74,0,0,0,1.4-.59,2.08,2.08,0,0,0,.5-1.37,2,2,0,0,0-.5-1.35A1.79,1.79,0,0,0,669,246.23Z"/><path class="cls-2" d="M680.69,219.11a2.65,2.65,0,0,0-1.55-.43,2.48,2.48,0,0,0-1.47.43,1.34,1.34,0,0,0-.62,1.17v28.1a1.55,1.55,0,0,0,.62,1.19,2.19,2.19,0,0,0,1.47.53,2.33,2.33,0,0,0,1.55-.53,1.57,1.57,0,0,0,.61-1.19v-28.1A1.36,1.36,0,0,0,680.69,219.11Zm.52-13.86a2.87,2.87,0,0,0-2.07-.79,2.93,2.93,0,0,0-2,.79,2.53,2.53,0,0,0-.85,1.9,2.44,2.44,0,0,0,.34,1.27,2.9,2.9,0,0,0,.51.67,2.82,2.82,0,0,0,2,.82,2.77,2.77,0,0,0,2.07-.82,2.85,2.85,0,0,0,.5-.67,2.63,2.63,0,0,0,.32-1.27A2.57,2.57,0,0,0,681.21,205.25Z"/><path class="cls-2" d="M714.8,229.26a11.79,11.79,0,0,0-1.47-4.47,12.37,12.37,0,0,0-4.23-4.42c-.16-.1-.31-.19-.47-.27a10.55,10.55,0,0,0-5.33-1.41,9.51,9.51,0,0,0-5.51,1.54,10.44,10.44,0,0,0-3.28,3.45v-3a1.37,1.37,0,0,0-.59-1.15,2.45,2.45,0,0,0-1.44-.43,2.6,2.6,0,0,0-1.48.43,1.35,1.35,0,0,0-.62,1.15V248.4a1.53,1.53,0,0,0,.62,1.17,2.24,2.24,0,0,0,1.48.53,2.32,2.32,0,0,0,1.54-.53,1.53,1.53,0,0,0,.62-1.17V231a9,9,0,0,1,.14-1.69,7.35,7.35,0,0,1,1-2.77,8.21,8.21,0,0,1,3-2.85,7.58,7.58,0,0,1,3.77-1,7.23,7.23,0,0,1,4.07,1.22,9.74,9.74,0,0,1,2,1.84,8.75,8.75,0,0,1,.89,1.27,7.81,7.81,0,0,1,.92,2.31,6.8,6.8,0,0,1,.2,1.69V248.4a1.4,1.4,0,0,0,.69,1.27,2.58,2.58,0,0,0,1.41.43,2.69,2.69,0,0,0,1.51-.43,1.42,1.42,0,0,0,.65-1.27V231A13.24,13.24,0,0,0,714.8,229.26Z"/><path class="cls-2" d="M747.05,221.51a6.25,6.25,0,0,1,2-.81,1.86,1.86,0,0,0,.88-.55,1.51,1.51,0,0,0,.36-1.07,1.93,1.93,0,0,0-.54-1.28,2.11,2.11,0,0,0-1.65-.62,4.29,4.29,0,0,0-2.71,1.16,10.48,10.48,0,0,0-2.5,3.46,11.28,11.28,0,0,0-3.81-2.28,13.58,13.58,0,0,0-4.75-.81,14.82,14.82,0,0,0-4.88.77,11,11,0,0,0-1.79.78,10.79,10.79,0,0,0-4.39,4.26,11.76,11.76,0,0,0-1.46,4.74,12.13,12.13,0,0,0-.08,1.5v2.78a13.06,13.06,0,0,0,1,5.26,10.34,10.34,0,0,0,3,4,8,8,0,0,0-2.63,2,4.86,4.86,0,0,0-1,3.27,5.43,5.43,0,0,0,.34,2,3.32,3.32,0,0,0,.8,1.25,7.7,7.7,0,0,0,2.89,1.8,12.47,12.47,0,0,0-4.32,2.87,6.88,6.88,0,0,0-1.91,5.13,7.52,7.52,0,0,0,1.94,5.18,12.75,12.75,0,0,0,5.28,3.38,16.21,16.21,0,0,0,2.33.67,24.51,24.51,0,0,0,5.32.54,21.68,21.68,0,0,0,7.4-1.17,11.42,11.42,0,0,0,5.08-3.49,8.87,8.87,0,0,0,1.87-5.77,7.52,7.52,0,0,0-1.65-5.21,9.74,9.74,0,0,0-4.25-2.71,26.82,26.82,0,0,0-5.48-1.22l-5.46-.62a18.34,18.34,0,0,1-2.83-.53l-.32-.1a10.09,10.09,0,0,1-1.1-.4,2.45,2.45,0,0,1-1.68-2.35,2.24,2.24,0,0,1,.73-1.8,9.11,9.11,0,0,1,1.53-1.06,7.91,7.91,0,0,0,.84.37,12.79,12.79,0,0,0,4.81.87,13.64,13.64,0,0,0,6.62-1.57,11.42,11.42,0,0,0,4.51-4.37,12.4,12.4,0,0,0,1.6-6.25v-2.78a12.09,12.09,0,0,0-.09-1.5,12.6,12.6,0,0,0-.41-2.25,9.94,9.94,0,0,0-1.54-3.15A6,6,0,0,1,747.05,221.51Zm-17.58,33.27a14.28,14.28,0,0,1,1.58-.6c1.12.15,2.46.29,4,.44a32.06,32.06,0,0,1,4.47.74,8.53,8.53,0,0,1,3.59,1.72,4.43,4.43,0,0,1,1.43,3.56,5.69,5.69,0,0,1-2.6,4.85,12.38,12.38,0,0,1-7.21,1.84,16.07,16.07,0,0,1-5.25-.76,9.23,9.23,0,0,1-2.23-1.08,5.58,5.58,0,0,1-2.71-4.78,5,5,0,0,1,2-4.18A13.36,13.36,0,0,1,729.47,254.78Zm12.86-24v2.78a9.11,9.11,0,0,1-2.09,6.14,7.25,7.25,0,0,1-5.82,2.46,7.69,7.69,0,0,1-4.95-1.56,6.67,6.67,0,0,1-1-.94,9.18,9.18,0,0,1-2.12-6.17v-2.71a10.3,10.3,0,0,1,.1-1.5,8.5,8.5,0,0,1,2-4.52,6.09,6.09,0,0,1,1-1,7.77,7.77,0,0,1,4.88-1.48,7.34,7.34,0,0,1,5.89,2.43,8.37,8.37,0,0,1,2,4.52A10.3,10.3,0,0,1,742.33,230.76Z"/><path class="cls-2" d="M584.55,148.78a6.09,6.09,0,0,0-1-1.32,5,5,0,0,0-3.72-1.5H573V130.35a4.82,4.82,0,0,0-3.06-4.68c-.52-.23-1-.44-1.58-.62a16,16,0,0,0-5-.79h-.63a15.94,15.94,0,0,0-4.5.78c-.52.18-1.05.39-1.55.62a4.82,4.82,0,0,0-3,4.68V146H536.17l0-.07,5.69-11.38,4.73-9.46,10.42-20.84,5.68-11.37,2-4a6.77,6.77,0,0,0,.73-2.52,5.33,5.33,0,0,0-.86-3,6,6,0,0,0-.84-1,11.76,11.76,0,0,0-1-.86,12.43,12.43,0,0,0-2.93-1.67,11,11,0,0,0-4-.88,9.87,9.87,0,0,0-4.53,1.1A8.52,8.52,0,0,0,548,83.36c-.12.2-.24.41-.35.62L541.9,95.22l-4.58,9-10.59,20.84-5.68,11.16-4.93,9.68-3.74,7.35a12,12,0,0,0-.74,1.94,7.28,7.28,0,0,0-.29,1.92A6.49,6.49,0,0,0,518,164h35.67v17.53a4.9,4.9,0,0,0,3,4.54,13.89,13.89,0,0,0,6.05,1.54h.63A14.24,14.24,0,0,0,570,186a4.91,4.91,0,0,0,3.06-4.54V164h6.83a4.87,4.87,0,0,0,3.72-2c.2-.24.4-.5.6-.79A10.63,10.63,0,0,0,586.1,155,12.81,12.81,0,0,0,584.55,148.78Z"/><path class="cls-2" d="M665.45,104.21A30.65,30.65,0,0,0,661.51,93a26.28,26.28,0,0,0-10.12-9.64c-.76-.41-1.53-.78-2.34-1.12s-1.94-.77-2.94-1.1a46.3,46.3,0,0,0-14.68-2.22,51.55,51.55,0,0,0-6.17.36,41.15,41.15,0,0,0-11.37,3c-.81.34-1.59.72-2.33,1.12a25.59,25.59,0,0,0-7.14,5.69,27.27,27.27,0,0,0-2.92,4,30.83,30.83,0,0,0-3.93,11.21,52.08,52.08,0,0,0-.64,8.47v41.13a46.24,46.24,0,0,0,1.64,12.92,27.67,27.67,0,0,0,2.93,6.76,28.73,28.73,0,0,0,2.92,4,25.89,25.89,0,0,0,9.47,6.8,41.51,41.51,0,0,0,11.37,3,53.75,53.75,0,0,0,6.17.35,46.3,46.3,0,0,0,14.68-2.22c1-.33,2-.69,2.94-1.1a26.22,26.22,0,0,0,12.46-10.76,27.68,27.68,0,0,0,2.94-6.76,46.26,46.26,0,0,0,1.63-12.92V112.68A53.28,53.28,0,0,0,665.45,104.21Zm-18.54,49.6a26.3,26.3,0,0,1-.8,6.81,13.27,13.27,0,0,1-3.33,6l-.1.09q-4.11,4-11.25,4a19,19,0,0,1-6.17-.94,13.08,13.08,0,0,1-5-3.1l-.09-.09q-4-4.12-4-12.83V112.68a23.75,23.75,0,0,1,1.33-8.47,12.57,12.57,0,0,1,2.72-4.36,13.19,13.19,0,0,1,5.11-3.19,19,19,0,0,1,6.17-.94q7.23,0,11.35,4.13a12.55,12.55,0,0,1,2.78,4.36,15.56,15.56,0,0,1,.55,1.67,26.17,26.17,0,0,1,.8,6.8Z"/><path class="cls-2" d="M708.31,83.36a5.57,5.57,0,0,0-2.42-2.74,10.63,10.63,0,0,0-5.71-1.7,6.37,6.37,0,0,0-2.3.38A5.88,5.88,0,0,0,696,80.4l-3.88,3-4.37,3.34-9.25,7a7.48,7.48,0,0,0-2.67,3,9,9,0,0,0-.89,3.93,8.61,8.61,0,0,0,.73,3.5,9.09,9.09,0,0,0,1,1.77,5.26,5.26,0,0,0,4.51,2.44,4.27,4.27,0,0,0,1.64-.37,10.42,10.42,0,0,0,1.78-1l3.17-3.17,1.57-1.57V181.5a4.89,4.89,0,0,0,3,4.52,15,15,0,0,0,13.27,0,4.89,4.89,0,0,0,3-4.52V85.15A5,5,0,0,0,708.31,83.36Z"/><path class="cls-2" d="M116,83.36a30.64,30.64,0,0,0-2.1-4.59,29.34,29.34,0,0,0-9.66-10.49,27.47,27.47,0,0,0-3.5-1.93,43.5,43.5,0,0,0-17.34-3.81l-1.31,0H49.75A8.26,8.26,0,0,0,44,64.6a6.43,6.43,0,0,0-2.26,4.87v111a5.74,5.74,0,0,0,3.31,5.3,15.25,15.25,0,0,0,14.45,0,5.91,5.91,0,0,0,3.07-3.83,6.31,6.31,0,0,0,.16-1.47V142.12H80.76q1.32,0,2.61-.06a45.08,45.08,0,0,0,16.69-3.85,29.72,29.72,0,0,0,4.15-2.29,30.57,30.57,0,0,0,9.5-10.31c.11-.18.21-.37.31-.56q4.42-8.1,4.68-20.84c0-.51,0-1,0-1.55v-1A53.65,53.65,0,0,0,116,83.36Zm-53.29-1H80.76a24.48,24.48,0,0,1,2.61.14,18.32,18.32,0,0,1,4,.88,14.06,14.06,0,0,1,5.92,3.92q4.44,5,4.44,15v2.09q0,10.07-4.44,15a15,15,0,0,1-9.91,4.81,24.48,24.48,0,0,1-2.61.14H62.68Z"/><path class="cls-2" d="M194.35,112.67a12.73,12.73,0,0,0-6.77-1.89c-.22,0-.45,0-.68,0a13.21,13.21,0,0,0-7.07,1.91c-2.06,1.27-3.1,2.75-3.1,4.45v38.24a13.43,13.43,0,0,1-1.9,6.82,15.72,15.72,0,0,1-3.84,4.55c-.37.3-.76.58-1.16.85a11.91,11.91,0,0,1-3.1,1.47,12.82,12.82,0,0,1-4,.59,12.18,12.18,0,0,1-7-2.14c-.36-.24-.71-.5-1-.77a16.37,16.37,0,0,1-4-4.55,13.1,13.1,0,0,1-1.9-6.82V117.27c0-1.56-1-3-2.92-4.37l-.09-.07a12.36,12.36,0,0,0-7.15-2.07,12.67,12.67,0,0,0-7.22,2.07c-2.06,1.37-3.1,2.85-3.1,4.44v38.09a28.24,28.24,0,0,0,2.35,11.37,31.37,31.37,0,0,0,2.34,4.42,35.67,35.67,0,0,0,12.54,11.91l.33.19a34.34,34.34,0,0,0,17,4.32,36.61,36.61,0,0,0,3.8-.2A33.61,33.61,0,0,0,180,183.14a36.42,36.42,0,0,0,7.59-5.7,34.2,34.2,0,0,0,4.94-6.13,33,33,0,0,0,2.41-4.58,28.9,28.9,0,0,0,2.28-11.37V117.12C197.21,115.42,196.25,113.94,194.35,112.67Z"/><path class="cls-2" d="M273.31,126.9c-.33-.64-.65-1.26-1-1.85s-.88-1.45-1.35-2.13a30.47,30.47,0,0,0-7.56-7.75,23,23,0,0,0-13.29-4.38h-.36a23.17,23.17,0,0,0-13.41,3.75,24.85,24.85,0,0,0-7.07,7c-.28.44-.54.9-.78,1.36v-4.79a5.34,5.34,0,0,0-2.62-4.62,11.28,11.28,0,0,0-6.43-1.76,13.77,13.77,0,0,0-7.3,1.76,5.25,5.25,0,0,0-2.85,4.62V181c0,1.6.95,3.08,2.85,4.47a12.08,12.08,0,0,0,7.3,2.07,12.5,12.5,0,0,0,7.3-2.07,7.81,7.81,0,0,0,2.53-2.6,3.87,3.87,0,0,0,.49-1.87V143.19a14.78,14.78,0,0,1,1.9-7.66,13.66,13.66,0,0,1,4.92-4.95,12.13,12.13,0,0,1,13.17.4l.36.26a15.76,15.76,0,0,1,4.64,5.09,13.56,13.56,0,0,1,1.83,6.86V181q0,3.19,3.33,4.87a15,15,0,0,0,6.82,1.67A16.07,16.07,0,0,0,271,187a12.83,12.83,0,0,0,2.91-1.13A5.26,5.26,0,0,0,277,181V143.19A35.46,35.46,0,0,0,273.31,126.9Z"/><path class="cls-2" d="M332.58,170.33h-6.19q-4.92,0-6.9-1.89t-2-6.49V127.31h18.73a4.27,4.27,0,0,0,3.89-2.29,10.46,10.46,0,0,0,0-10.28,4.28,4.28,0,0,0-3.89-2.3H317.5V85.24q0-2.85-3.25-4.59a14.73,14.73,0,0,0-13.89,0Q297,82.39,297,85.24v27.19h-9.84a4.28,4.28,0,0,0-3.89,2.3,10.46,10.46,0,0,0,0,10.28,4.27,4.27,0,0,0,3.89,2.29H297V162q0,13.29,7.54,19.46t21.82,6.16h6.19c3,0,5.16-.89,6.58-2.68a9.43,9.43,0,0,0,2.15-6,9.23,9.23,0,0,0-2.15-5.86C337.74,171.23,335.54,170.33,332.58,170.33Z"/><path class="cls-2" d="M396,76.15A69.36,69.36,0,0,1,437.66,90a2.41,2.41,0,0,0,3.16-.2L462,68.64a2.42,2.42,0,0,0-.2-3.58,104.2,104.2,0,0,0-131.54,0,2.42,2.42,0,0,0-.2,3.58l21.14,21.14a2.42,2.42,0,0,0,3.16.21A69.35,69.35,0,0,1,396,76.15Z"/><path class="cls-2" d="M465.74,145.89a69.45,69.45,0,0,1-13.92,41.79,2.23,2.23,0,0,0,.19,2.93L473.39,212a2.23,2.23,0,0,0,3.29-.14,104.22,104.22,0,0,0,0-131.92,2.24,2.24,0,0,0-3.3-.14L452,101.17a2.23,2.23,0,0,0-.19,2.94A69.39,69.39,0,0,1,465.74,145.89Z"/><path class="cls-2" d="M396,215.63a69.42,69.42,0,0,1-41.83-13.95,2.18,2.18,0,0,0-2.86.18l-21.46,21.46a2.17,2.17,0,0,0,.14,3.21,104.22,104.22,0,0,0,132,0,2.17,2.17,0,0,0,.14-3.2l-21.47-21.47a2.17,2.17,0,0,0-2.85-.18A69.44,69.44,0,0,1,396,215.63Z"/><circle class="cls-3" cx="396" cy="145.89" r="41.68"/></g></g></svg>